<svg xmlns="http://www.w3.org/2000/svg" viewBox="0 0 560 360" fill="none">
  <defs>
    <linearGradient id="tilePale" x1="0" y1="0" x2="0" y2="1">
    <stop offset="0" stop-color="#FFBAA4"/>
    <stop offset="1" stop-color="#FFFFFF"/>
  </linearGradient>
    
  </defs>
  <line x1="264" y1="10" x2="264" y2="350" stroke="#E03C06" stroke-width="1" stroke-dasharray="2 6" opacity=".3"/>
<polygon points="62.00,18.00 91.00,25.00 83.00,52.00 54.00,45.00" fill="url(#tilePale)" stroke="#E03C06" stroke-width="1" stroke-linejoin="round"/>
<polygon points="91.00,25.00 120.00,32.00 112.00,59.00 83.00,52.00" fill="url(#tilePale)" stroke="#E03C06" stroke-width="1" stroke-linejoin="round"/>
<polygon points="120.00,32.00 149.00,39.00 141.00,66.00 112.00,59.00" fill="url(#tilePale)" stroke="#E03C06" stroke-width="1" stroke-linejoin="round"/>
<polygon points="149.00,39.00 178.00,46.00 170.00,73.00 141.00,66.00" fill="url(#tilePale)" stroke="#E03C06" stroke-width="1" stroke-linejoin="round"/>
<polygon points="178.00,46.00 207.00,53.00 199.00,80.00 170.00,73.00" fill="url(#tilePale)" stroke="#E03C06" stroke-width="1" stroke-linejoin="round"/>
<polygon points="207.00,53.00 236.00,60.00 228.00,87.00 199.00,80.00" fill="url(#tilePale)" stroke="#E03C06" stroke-width="1" stroke-linejoin="round"/>
<polygon points="54.00,45.00 83.00,52.00 75.00,79.00 46.00,72.00" fill="url(#tilePale)" stroke="#E03C06" stroke-width="1" stroke-linejoin="round"/>
<polygon points="83.00,52.00 112.00,59.00 104.00,86.00 75.00,79.00" fill="url(#tilePale)" stroke="#E03C06" stroke-width="1" stroke-linejoin="round"/>
<polygon points="112.00,59.00 141.00,66.00 133.00,93.00 104.00,86.00" fill="url(#tilePale)" stroke="#E03C06" stroke-width="1" stroke-linejoin="round"/>
<polygon points="141.00,66.00 170.00,73.00 162.00,100.00 133.00,93.00" fill="url(#tilePale)" stroke="#E03C06" stroke-width="1" stroke-linejoin="round"/>
<polygon points="170.00,73.00 199.00,80.00 191.00,107.00 162.00,100.00" fill="url(#tilePale)" stroke="#E03C06" stroke-width="1" stroke-linejoin="round"/>
<polygon points="199.00,80.00 228.00,87.00 220.00,114.00 191.00,107.00" fill="url(#tilePale)" stroke="#E03C06" stroke-width="1" stroke-linejoin="round"/>
<polygon points="46.00,72.00 75.00,79.00 67.00,106.00 38.00,99.00" fill="url(#tilePale)" stroke="#E03C06" stroke-width="1" stroke-linejoin="round"/>
<polygon points="75.00,79.00 104.00,86.00 96.00,113.00 67.00,106.00" fill="#FF4608" stroke="#E03C06" stroke-width="1" stroke-linejoin="round"/>
<polygon points="104.00,86.00 133.00,93.00 125.00,120.00 96.00,113.00" fill="url(#tilePale)" stroke="#E03C06" stroke-width="1" stroke-linejoin="round"/>
<polygon points="133.00,93.00 162.00,100.00 154.00,127.00 125.00,120.00" fill="url(#tilePale)" stroke="#E03C06" stroke-width="1" stroke-linejoin="round"/>
<polygon points="162.00,100.00 191.00,107.00 183.00,134.00 154.00,127.00" fill="url(#tilePale)" stroke="#E03C06" stroke-width="1" stroke-linejoin="round"/>
<polygon points="191.00,107.00 220.00,114.00 212.00,141.00 183.00,134.00" fill="url(#tilePale)" stroke="#E03C06" stroke-width="1" stroke-linejoin="round"/>
<polygon points="38.00,99.00 67.00,106.00 59.00,133.00 30.00,126.00" fill="url(#tilePale)" stroke="#E03C06" stroke-width="1" stroke-linejoin="round"/>
<polygon points="67.00,106.00 96.00,113.00 88.00,140.00 59.00,133.00" fill="url(#tilePale)" stroke="#E03C06" stroke-width="1" stroke-linejoin="round"/>
<polygon points="96.00,113.00 125.00,120.00 117.00,147.00 88.00,140.00" fill="url(#tilePale)" stroke="#E03C06" stroke-width="1" stroke-linejoin="round"/>
<polygon points="125.00,120.00 154.00,127.00 146.00,154.00 117.00,147.00" fill="url(#tilePale)" stroke="#E03C06" stroke-width="1" stroke-linejoin="round"/>
<polygon points="154.00,127.00 183.00,134.00 175.00,161.00 146.00,154.00" fill="url(#tilePale)" stroke="#E03C06" stroke-width="1" stroke-linejoin="round"/>
<polygon points="183.00,134.00 212.00,141.00 204.00,168.00 175.00,161.00" fill="url(#tilePale)" stroke="#E03C06" stroke-width="1" stroke-linejoin="round"/>
<polygon points="30.00,126.00 59.00,133.00 51.00,160.00 22.00,153.00" fill="url(#tilePale)" stroke="#E03C06" stroke-width="1" stroke-linejoin="round"/>
<polygon points="59.00,133.00 88.00,140.00 80.00,167.00 51.00,160.00" fill="url(#tilePale)" stroke="#E03C06" stroke-width="1" stroke-linejoin="round"/>
<polygon points="88.00,140.00 117.00,147.00 109.00,174.00 80.00,167.00" fill="url(#tilePale)" stroke="#E03C06" stroke-width="1" stroke-linejoin="round"/>
<polygon points="117.00,147.00 146.00,154.00 138.00,181.00 109.00,174.00" fill="url(#tilePale)" stroke="#E03C06" stroke-width="1" stroke-linejoin="round"/>
<polygon points="146.00,154.00 175.00,161.00 167.00,188.00 138.00,181.00" fill="#FF4608" stroke="#E03C06" stroke-width="1" stroke-linejoin="round"/>
<polygon points="175.00,161.00 204.00,168.00 196.00,195.00 167.00,188.00" fill="url(#tilePale)" stroke="#E03C06" stroke-width="1" stroke-linejoin="round"/>
<polygon points="22.00,153.00 51.00,160.00 43.00,187.00 14.00,180.00" fill="url(#tilePale)" stroke="#E03C06" stroke-width="1" stroke-linejoin="round"/>
<polygon points="51.00,160.00 80.00,167.00 72.00,194.00 43.00,187.00" fill="url(#tilePale)" stroke="#E03C06" stroke-width="1" stroke-linejoin="round"/>
<polygon points="80.00,167.00 109.00,174.00 101.00,201.00 72.00,194.00" fill="url(#tilePale)" stroke="#E03C06" stroke-width="1" stroke-linejoin="round"/>
<polygon points="109.00,174.00 138.00,181.00 130.00,208.00 101.00,201.00" fill="url(#tilePale)" stroke="#E03C06" stroke-width="1" stroke-linejoin="round"/>
<polygon points="138.00,181.00 167.00,188.00 159.00,215.00 130.00,208.00" fill="url(#tilePale)" stroke="#E03C06" stroke-width="1" stroke-linejoin="round"/>
<polygon points="167.00,188.00 196.00,195.00 188.00,222.00 159.00,215.00" fill="url(#tilePale)" stroke="#E03C06" stroke-width="1" stroke-linejoin="round"/>
<polygon points="14.00,180.00 43.00,187.00 35.00,214.00 6.00,207.00" fill="url(#tilePale)" stroke="#E03C06" stroke-width="1" stroke-linejoin="round"/>
<polygon points="43.00,187.00 72.00,194.00 64.00,221.00 35.00,214.00" fill="url(#tilePale)" stroke="#E03C06" stroke-width="1" stroke-linejoin="round"/>
<polygon points="72.00,194.00 101.00,201.00 93.00,228.00 64.00,221.00" fill="url(#tilePale)" stroke="#E03C06" stroke-width="1" stroke-linejoin="round"/>
<polygon points="101.00,201.00 130.00,208.00 122.00,235.00 93.00,228.00" fill="url(#tilePale)" stroke="#E03C06" stroke-width="1" stroke-linejoin="round"/>
<polygon points="130.00,208.00 159.00,215.00 151.00,242.00 122.00,235.00" fill="url(#tilePale)" stroke="#E03C06" stroke-width="1" stroke-linejoin="round"/>
<polygon points="159.00,215.00 188.00,222.00 180.00,249.00 151.00,242.00" fill="url(#tilePale)" stroke="#E03C06" stroke-width="1" stroke-linejoin="round"/>
<polygon points="6.00,207.00 35.00,214.00 27.00,241.00 -2.00,234.00" fill="url(#tilePale)" stroke="#E03C06" stroke-width="1" stroke-linejoin="round"/>
<polygon points="35.00,214.00 64.00,221.00 56.00,248.00 27.00,241.00" fill="url(#tilePale)" stroke="#E03C06" stroke-width="1" stroke-linejoin="round"/>
<polygon points="64.00,221.00 93.00,228.00 85.00,255.00 56.00,248.00" fill="#FF4608" stroke="#E03C06" stroke-width="1" stroke-linejoin="round"/>
<polygon points="93.00,228.00 122.00,235.00 114.00,262.00 85.00,255.00" fill="url(#tilePale)" stroke="#E03C06" stroke-width="1" stroke-linejoin="round"/>
<polygon points="122.00,235.00 151.00,242.00 143.00,269.00 114.00,262.00" fill="url(#tilePale)" stroke="#E03C06" stroke-width="1" stroke-linejoin="round"/>
<polygon points="151.00,242.00 180.00,249.00 172.00,276.00 143.00,269.00" fill="url(#tilePale)" stroke="#E03C06" stroke-width="1" stroke-linejoin="round"/>
<polygon points="-2.00,234.00 27.00,241.00 19.00,268.00 -10.00,261.00" fill="url(#tilePale)" stroke="#E03C06" stroke-width="1" stroke-linejoin="round"/>
<polygon points="27.00,241.00 56.00,248.00 48.00,275.00 19.00,268.00" fill="url(#tilePale)" stroke="#E03C06" stroke-width="1" stroke-linejoin="round"/>
<polygon points="56.00,248.00 85.00,255.00 77.00,282.00 48.00,275.00" fill="url(#tilePale)" stroke="#E03C06" stroke-width="1" stroke-linejoin="round"/>
<polygon points="85.00,255.00 114.00,262.00 106.00,289.00 77.00,282.00" fill="url(#tilePale)" stroke="#E03C06" stroke-width="1" stroke-linejoin="round"/>
<polygon points="114.00,262.00 143.00,269.00 135.00,296.00 106.00,289.00" fill="url(#tilePale)" stroke="#E03C06" stroke-width="1" stroke-linejoin="round"/>
<polygon points="143.00,269.00 172.00,276.00 164.00,303.00 135.00,296.00" fill="url(#tilePale)" stroke="#E03C06" stroke-width="1" stroke-linejoin="round"/>
<polygon points="-10.00,261.00 19.00,268.00 11.00,295.00 -18.00,288.00" fill="url(#tilePale)" stroke="#E03C06" stroke-width="1" stroke-linejoin="round"/>
<polygon points="19.00,268.00 48.00,275.00 40.00,302.00 11.00,295.00" fill="url(#tilePale)" stroke="#E03C06" stroke-width="1" stroke-linejoin="round"/>
<polygon points="48.00,275.00 77.00,282.00 69.00,309.00 40.00,302.00" fill="url(#tilePale)" stroke="#E03C06" stroke-width="1" stroke-linejoin="round"/>
<polygon points="77.00,282.00 106.00,289.00 98.00,316.00 69.00,309.00" fill="url(#tilePale)" stroke="#E03C06" stroke-width="1" stroke-linejoin="round"/>
<polygon points="106.00,289.00 135.00,296.00 127.00,323.00 98.00,316.00" fill="url(#tilePale)" stroke="#E03C06" stroke-width="1" stroke-linejoin="round"/>
<polygon points="135.00,296.00 164.00,303.00 156.00,330.00 127.00,323.00" fill="url(#tilePale)" stroke="#E03C06" stroke-width="1" stroke-linejoin="round"/>
<polygon points="292.00,18.00 321.00,25.00 313.00,52.00 284.00,45.00" fill="url(#tilePale)" stroke="#E03C06" stroke-width="1" stroke-linejoin="round"/>
<polygon points="321.00,25.00 350.00,32.00 342.00,59.00 313.00,52.00" fill="url(#tilePale)" stroke="#E03C06" stroke-width="1" stroke-linejoin="round"/>
<polygon points="350.00,32.00 379.00,39.00 371.00,66.00 342.00,59.00" fill="url(#tilePale)" stroke="#E03C06" stroke-width="1" stroke-linejoin="round"/>
<polygon points="379.00,39.00 408.00,46.00 400.00,73.00 371.00,66.00" fill="url(#tilePale)" stroke="#E03C06" stroke-width="1" stroke-linejoin="round"/>
<polygon points="408.00,46.00 437.00,53.00 429.00,80.00 400.00,73.00" fill="url(#tilePale)" stroke="#E03C06" stroke-width="1" stroke-linejoin="round"/>
<polygon points="437.00,53.00 466.00,60.00 458.00,87.00 429.00,80.00" fill="url(#tilePale)" stroke="#E03C06" stroke-width="1" stroke-linejoin="round"/>
<polygon points="284.00,45.00 313.00,52.00 305.00,79.00 276.00,72.00" fill="url(#tilePale)" stroke="#E03C06" stroke-width="1" stroke-linejoin="round"/>
<polygon points="313.00,52.00 342.00,59.00 334.00,86.00 305.00,79.00" fill="url(#tilePale)" stroke="#E03C06" stroke-width="1" stroke-linejoin="round"/>
<polygon points="342.00,59.00 371.00,66.00 363.00,93.00 334.00,86.00" fill="url(#tilePale)" stroke="#E03C06" stroke-width="1" stroke-linejoin="round"/>
<polygon points="371.00,66.00 400.00,73.00 392.00,100.00 363.00,93.00" fill="url(#tilePale)" stroke="#E03C06" stroke-width="1" stroke-linejoin="round"/>
<polygon points="400.00,73.00 429.00,80.00 421.00,107.00 392.00,100.00" fill="url(#tilePale)" stroke="#E03C06" stroke-width="1" stroke-linejoin="round"/>
<polygon points="429.00,80.00 458.00,87.00 450.00,114.00 421.00,107.00" fill="url(#tilePale)" stroke="#E03C06" stroke-width="1" stroke-linejoin="round"/>
<polygon points="276.00,72.00 305.00,79.00 297.00,106.00 268.00,99.00" fill="url(#tilePale)" stroke="#E03C06" stroke-width="1" stroke-linejoin="round"/>
<polygon points="305.00,79.00 334.00,86.00 326.00,113.00 297.00,106.00" fill="#FF4608" stroke="#E03C06" stroke-width="1" stroke-linejoin="round"/>
<polygon points="334.00,86.00 363.00,93.00 355.00,120.00 326.00,113.00" fill="url(#tilePale)" stroke="#E03C06" stroke-width="1" stroke-linejoin="round"/>
<polygon points="363.00,93.00 392.00,100.00 384.00,127.00 355.00,120.00" fill="url(#tilePale)" stroke="#E03C06" stroke-width="1" stroke-linejoin="round"/>
<polygon points="392.00,100.00 421.00,107.00 413.00,134.00 384.00,127.00" fill="url(#tilePale)" stroke="#E03C06" stroke-width="1" stroke-linejoin="round"/>
<polygon points="421.00,107.00 450.00,114.00 442.00,141.00 413.00,134.00" fill="url(#tilePale)" stroke="#E03C06" stroke-width="1" stroke-linejoin="round"/>
<polygon points="268.00,99.00 297.00,106.00 289.00,133.00 260.00,126.00" fill="url(#tilePale)" stroke="#E03C06" stroke-width="1" stroke-linejoin="round"/>
<polygon points="297.00,106.00 326.00,113.00 318.00,140.00 289.00,133.00" fill="url(#tilePale)" stroke="#E03C06" stroke-width="1" stroke-linejoin="round"/>
<polygon points="326.00,113.00 355.00,120.00 347.00,147.00 318.00,140.00" fill="url(#tilePale)" stroke="#E03C06" stroke-width="1" stroke-linejoin="round"/>
<polygon points="355.00,120.00 384.00,127.00 376.00,154.00 347.00,147.00" fill="url(#tilePale)" stroke="#E03C06" stroke-width="1" stroke-linejoin="round"/>
<polygon points="384.00,127.00 413.00,134.00 405.00,161.00 376.00,154.00" fill="url(#tilePale)" stroke="#E03C06" stroke-width="1" stroke-linejoin="round"/>
<polygon points="413.00,134.00 442.00,141.00 434.00,168.00 405.00,161.00" fill="url(#tilePale)" stroke="#E03C06" stroke-width="1" stroke-linejoin="round"/>
<polygon points="260.00,126.00 289.00,133.00 281.00,160.00 252.00,153.00" fill="url(#tilePale)" stroke="#E03C06" stroke-width="1" stroke-linejoin="round"/>
<polygon points="289.00,133.00 318.00,140.00 310.00,167.00 281.00,160.00" fill="url(#tilePale)" stroke="#E03C06" stroke-width="1" stroke-linejoin="round"/>
<polygon points="318.00,140.00 347.00,147.00 339.00,174.00 310.00,167.00" fill="url(#tilePale)" stroke="#E03C06" stroke-width="1" stroke-linejoin="round"/>
<polygon points="347.00,147.00 376.00,154.00 368.00,181.00 339.00,174.00" fill="url(#tilePale)" stroke="#E03C06" stroke-width="1" stroke-linejoin="round"/>
<polygon points="376.00,154.00 405.00,161.00 397.00,188.00 368.00,181.00" fill="#FF4608" stroke="#E03C06" stroke-width="1" stroke-linejoin="round"/>
<polygon points="405.00,161.00 434.00,168.00 426.00,195.00 397.00,188.00" fill="url(#tilePale)" stroke="#E03C06" stroke-width="1" stroke-linejoin="round"/>
<polygon points="252.00,153.00 281.00,160.00 273.00,187.00 244.00,180.00" fill="url(#tilePale)" stroke="#E03C06" stroke-width="1" stroke-linejoin="round"/>
<polygon points="281.00,160.00 310.00,167.00 302.00,194.00 273.00,187.00" fill="url(#tilePale)" stroke="#E03C06" stroke-width="1" stroke-linejoin="round"/>
<polygon points="310.00,167.00 339.00,174.00 331.00,201.00 302.00,194.00" fill="url(#tilePale)" stroke="#E03C06" stroke-width="1" stroke-linejoin="round"/>
<polygon points="339.00,174.00 368.00,181.00 360.00,208.00 331.00,201.00" fill="url(#tilePale)" stroke="#E03C06" stroke-width="1" stroke-linejoin="round"/>
<polygon points="368.00,181.00 397.00,188.00 389.00,215.00 360.00,208.00" fill="url(#tilePale)" stroke="#E03C06" stroke-width="1" stroke-linejoin="round"/>
<polygon points="397.00,188.00 426.00,195.00 418.00,222.00 389.00,215.00" fill="url(#tilePale)" stroke="#E03C06" stroke-width="1" stroke-linejoin="round"/>
<polygon points="244.00,180.00 273.00,187.00 265.00,214.00 236.00,207.00" fill="url(#tilePale)" stroke="#E03C06" stroke-width="1" stroke-linejoin="round"/>
<polygon points="273.00,187.00 302.00,194.00 294.00,221.00 265.00,214.00" fill="url(#tilePale)" stroke="#E03C06" stroke-width="1" stroke-linejoin="round"/>
<polygon points="302.00,194.00 331.00,201.00 323.00,228.00 294.00,221.00" fill="url(#tilePale)" stroke="#E03C06" stroke-width="1" stroke-linejoin="round"/>
<polygon points="331.00,201.00 360.00,208.00 352.00,235.00 323.00,228.00" fill="url(#tilePale)" stroke="#E03C06" stroke-width="1" stroke-linejoin="round"/>
<polygon points="360.00,208.00 389.00,215.00 381.00,242.00 352.00,235.00" fill="url(#tilePale)" stroke="#E03C06" stroke-width="1" stroke-linejoin="round"/>
<polygon points="389.00,215.00 418.00,222.00 410.00,249.00 381.00,242.00" fill="url(#tilePale)" stroke="#E03C06" stroke-width="1" stroke-linejoin="round"/>
<polygon points="236.00,207.00 265.00,214.00 257.00,241.00 228.00,234.00" fill="url(#tilePale)" stroke="#E03C06" stroke-width="1" stroke-linejoin="round"/>
<polygon points="265.00,214.00 294.00,221.00 286.00,248.00 257.00,241.00" fill="url(#tilePale)" stroke="#E03C06" stroke-width="1" stroke-linejoin="round"/>
<polygon points="294.00,221.00 323.00,228.00 315.00,255.00 286.00,248.00" fill="#FF4608" stroke="#E03C06" stroke-width="1" stroke-linejoin="round"/>
<polygon points="323.00,228.00 352.00,235.00 344.00,262.00 315.00,255.00" fill="url(#tilePale)" stroke="#E03C06" stroke-width="1" stroke-linejoin="round"/>
<polygon points="352.00,235.00 381.00,242.00 373.00,269.00 344.00,262.00" fill="url(#tilePale)" stroke="#E03C06" stroke-width="1" stroke-linejoin="round"/>
<polygon points="381.00,242.00 410.00,249.00 402.00,276.00 373.00,269.00" fill="url(#tilePale)" stroke="#E03C06" stroke-width="1" stroke-linejoin="round"/>
<polygon points="228.00,234.00 257.00,241.00 249.00,268.00 220.00,261.00" fill="url(#tilePale)" stroke="#E03C06" stroke-width="1" stroke-linejoin="round"/>
<polygon points="257.00,241.00 286.00,248.00 278.00,275.00 249.00,268.00" fill="url(#tilePale)" stroke="#E03C06" stroke-width="1" stroke-linejoin="round"/>
<polygon points="286.00,248.00 315.00,255.00 307.00,282.00 278.00,275.00" fill="url(#tilePale)" stroke="#E03C06" stroke-width="1" stroke-linejoin="round"/>
<polygon points="315.00,255.00 344.00,262.00 336.00,289.00 307.00,282.00" fill="url(#tilePale)" stroke="#E03C06" stroke-width="1" stroke-linejoin="round"/>
<polygon points="344.00,262.00 373.00,269.00 365.00,296.00 336.00,289.00" fill="url(#tilePale)" stroke="#E03C06" stroke-width="1" stroke-linejoin="round"/>
<polygon points="373.00,269.00 402.00,276.00 394.00,303.00 365.00,296.00" fill="url(#tilePale)" stroke="#E03C06" stroke-width="1" stroke-linejoin="round"/>
<polygon points="220.00,261.00 249.00,268.00 241.00,295.00 212.00,288.00" fill="url(#tilePale)" stroke="#E03C06" stroke-width="1" stroke-linejoin="round"/>
<polygon points="249.00,268.00 278.00,275.00 270.00,302.00 241.00,295.00" fill="url(#tilePale)" stroke="#E03C06" stroke-width="1" stroke-linejoin="round"/>
<polygon points="278.00,275.00 307.00,282.00 299.00,309.00 270.00,302.00" fill="url(#tilePale)" stroke="#E03C06" stroke-width="1" stroke-linejoin="round"/>
<polygon points="307.00,282.00 336.00,289.00 328.00,316.00 299.00,309.00" fill="url(#tilePale)" stroke="#E03C06" stroke-width="1" stroke-linejoin="round"/>
<polygon points="336.00,289.00 365.00,296.00 357.00,323.00 328.00,316.00" fill="url(#tilePale)" stroke="#E03C06" stroke-width="1" stroke-linejoin="round"/>
<polygon points="365.00,296.00 394.00,303.00 386.00,330.00 357.00,323.00" fill="url(#tilePale)" stroke="#E03C06" stroke-width="1" stroke-linejoin="round"/>
</svg>
